<svg width="128" height="128" viewBox="0 0 128 128" fill="none" xmlns="http://www.w3.org/2000/svg">
  <defs>
    <radialGradient id="eyeRadial" cx="35%" cy="35%">
      <stop offset="0%" style="stop-color:#ffd700;stop-opacity:1" />
      <stop offset="60%" style="stop-color:#ffb400;stop-opacity:1" />
      <stop offset="100%" style="stop-color:#ff8800;stop-opacity:1" />
    </radialGradient>
    <filter id="softGlow">
      <feGaussianBlur stdDeviation="3" result="coloredBlur"/>
      <feMerge>
        <feMergeNode in="coloredBlur"/>
        <feMergeNode in="SourceGraphic"/>
      </feMerge>
    </filter>
  </defs>
  
  <!-- Outer glow circle -->
  <circle cx="64" cy="64" r="60" fill="none" stroke="#ffb400" stroke-width="1" opacity="0.15" filter="url(#softGlow)"/>
  
  <!-- Main eye circle (iris) -->
  <circle cx="64" cy="64" r="32" fill="url(#eyeRadial)" filter="url(#softGlow)"/>
  
  <!-- Eye middle ring -->
  <circle cx="64" cy="64" r="28" fill="none" stroke="#ff9933" stroke-width="1.5" opacity="0.5"/>
  
  <!-- Inner iris detail -->
  <circle cx="64" cy="64" r="23" fill="none" stroke="#ffd700" stroke-width="0.8" opacity="0.4"/>
  
  <!-- Dark pupil background -->
  <circle cx="64" cy="64" r="18" fill="#0a0a0a"/>
  
  <!-- Pupil (dark center) -->
  <circle cx="64" cy="64" r="14" fill="#000000"/>
  
  <!-- Pupil rim light -->
  <circle cx="64" cy="64" r="14" fill="none" stroke="#ffb400" stroke-width="0.6" opacity="0.7"/>
  
  <!-- Main highlight (bright reflection) -->
  <ellipse cx="58" cy="58" rx="5" ry="6" fill="#ffffff" opacity="0.95" filter="url(#softGlow)"/>
  
  <!-- Secondary highlight -->
  <circle cx="70" cy="72" r="2.5" fill="#ffd700" opacity="0.8"/>
  
  <!-- Tertiary subtle highlight -->
  <circle cx="68" cy="60" r="1.5" fill="#ffffff" opacity="0.6"/>
  
  <!-- Eye inner glow (rim light around pupil) -->
  <circle cx="64" cy="64" r="18" fill="none" stroke="#ffb400" stroke-width="0.4" opacity="0.5" filter="url(#softGlow)"/>
  
  <!-- Detailed iris rays (sunburst pattern) -->
  <g opacity="0.3" stroke="#ff9933" stroke-width="0.5" stroke-linecap="round">
    <line x1="64" y1="32" x2="64" y2="27" />
    <line x1="77" y1="36" x2="81" y2="32" />
    <line x1="85" y1="51" x2="90" y2="51" />
    <line x1="77" y1="92" x2="81" y2="96" />
    <line x1="64" y1="96" x2="64" y2="101" />
    <line x1="51" y1="92" x2="47" y2="96" />
    <line x1="43" y1="51" x2="38" y2="51" />
    <line x1="51" y1="36" x2="47" y2="32" />
  </g>
  
  <!-- Eyelid suggestions (upper and lower) -->
  <path d="M 38 55 Q 64 42 90 55" stroke="#ffb400" stroke-width="1.5" fill="none" opacity="0.4" stroke-linecap="round"/>
  <path d="M 38 73 Q 64 86 90 73" stroke="#ffb400" stroke-width="1.5" fill="none" opacity="0.4" stroke-linecap="round"/>
  
  <!-- Subtle feather/wing texture on sides -->
  <path d="M 32 64 Q 28 58 26 64 Q 28 70 32 64" fill="#ffb400" opacity="0.2"/>
  <path d="M 96 64 Q 100 58 102 64 Q 100 70 96 64" fill="#ffb400" opacity="0.2"/>
  
  <!-- Surveillance/targeting circle -->
  <circle cx="64" cy="64" r="38" fill="none" stroke="#ffb400" stroke-width="0.8" opacity="0.15" stroke-dasharray="2,3"/>
</svg>
